HIERARCHY
ROOT mixamorig:Hips
{
	OFFSET 0.000000 77.714516 0.000000
	CHANNELS 6 Xposition Yposition Zposition Xrotation Yrotation Zrotation
	JOINT mixamorig:Spine
	{
		OFFSET 0.000000 14.685699 -1.734700
		CHANNELS 3 Xrotation Yrotation Zrotation
		JOINT mixamorig:Spine1
		{
			OFFSET 0.000000 17.133286 -2.023825
			CHANNELS 3 Xrotation Yrotation Zrotation
			JOINT mixamorig:Spine2
			{
				OFFSET 0.000000 19.580956 -2.312950
				CHANNELS 3 Xrotation Yrotation Zrotation
				JOINT mixamorig:Neck
				{
					OFFSET 0.000000 22.028564 -2.602067
					CHANNELS 3 Xrotation Yrotation Zrotation
					JOINT mixamorig:Head
					{
						OFFSET 0.000000 7.772293 1.167700
						CHANNELS 3 Xrotation Yrotation Zrotation
						JOINT mixamorig:HeadTop_End
						{
							OFFSET 0.000000 26.518204 3.983900
							CHANNELS 3 Xrotation Yrotation Zrotation
							End Site
							{
								OFFSET 0.000000 26.815781 0.000000
							}
						}
					}
				}
				JOINT mixamorig:LeftShoulder
				{
					OFFSET 11.646600 18.513336 -2.583780
					CHANNELS 3 Xrotation Yrotation Zrotation
					JOINT mixamorig:LeftArm
					{
						OFFSET 23.544209 -6.614426 0.036475
						CHANNELS 3 Xrotation Yrotation Zrotation
						JOINT mixamorig:LeftForeArm
						{
							OFFSET 22.756695 0.000000 -0.000001
							CHANNELS 3 Xrotation Yrotation Zrotation
							JOINT mixamorig:LeftHand
							{
								OFFSET 32.238304 0.000000 -0.000001
								CHANNELS 3 Xrotation Yrotation Zrotation
								JOINT mixamorig:LeftHandThumb1
								{
									OFFSET 4.391930 -2.771759 4.066533
									CHANNELS 3 Xrotation Yrotation Zrotation
									JOINT mixamorig:LeftHandThumb2
									{
										OFFSET 4.087418 -2.359879 2.359871
										CHANNELS 3 Xrotation Yrotation Zrotation
										JOINT mixamorig:LeftHandThumb3
										{
											OFFSET 4.044945 -2.335342 2.335349
											CHANNELS 3 Xrotation Yrotation Zrotation
											JOINT mixamorig:LeftHandThumb4
											{
												OFFSET 3.242561 -1.872101 1.872095
												CHANNELS 3 Xrotation Yrotation Zrotation
												End Site
												{
													OFFSET 2.876892 -1.863678 2.402885
												}
											}
										}
									}
								}
								JOINT mixamorig:LeftHandIndex1
								{
									OFFSET 13.080666 -0.495590 3.860911
									CHANNELS 3 Xrotation Yrotation Zrotation
									JOINT mixamorig:LeftHandIndex2
									{
										OFFSET 4.467804 0.000000 0.000000
										CHANNELS 3 Xrotation Yrotation Zrotation
										JOINT mixamorig:LeftHandIndex3
										{
											OFFSET 4.434097 0.000000 0.000000
											CHANNELS 3 Xrotation Yrotation Zrotation
											JOINT mixamorig:LeftHandIndex4
											{
												OFFSET 3.589699 0.000000 0.000000
												CHANNELS 3 Xrotation Yrotation Zrotation
												End Site
												{
													OFFSET 3.589706 0.000000 0.000200
												}
											}
										}
									}
								}
								JOINT mixamorig:LeftHandMiddle1
								{
									OFFSET 12.178093 0.000000 0.000000
									CHANNELS 3 Xrotation Yrotation Zrotation
									JOINT mixamorig:LeftHandMiddle2
									{
										OFFSET 5.491508 0.000000 0.000000
										CHANNELS 3 Xrotation Yrotation Zrotation
										JOINT mixamorig:LeftHandMiddle3
										{
											OFFSET 5.202805 0.000000 0.000000
											CHANNELS 3 Xrotation Yrotation Zrotation
											JOINT mixamorig:LeftHandMiddle4
											{
												OFFSET 4.456505 0.000000 0.000000
												CHANNELS 3 Xrotation Yrotation Zrotation
												End Site
												{
													OFFSET 4.456505 -0.000046 0.006499
												}
											}
										}
									}
								}
								JOINT mixamorig:LeftHandRing1
								{
									OFFSET 11.850945 -0.053970 -3.835439
									CHANNELS 3 Xrotation Yrotation Zrotation
									JOINT mixamorig:LeftHandRing2
									{
										OFFSET 4.691414 0.000000 0.000000
										CHANNELS 3 Xrotation Yrotation Zrotation
										JOINT mixamorig:LeftHandRing3
										{
											OFFSET 4.518303 0.000000 0.000000
											CHANNELS 3 Xrotation Yrotation Zrotation
											JOINT mixamorig:LeftHandRing4
											{
												OFFSET 3.568130 0.000000 0.000000
												CHANNELS 3 Xrotation Yrotation Zrotation
												End Site
												{
													OFFSET 3.568100 -0.000168 0.014599
												}
											}
										}
									}
								}
								JOINT mixamorig:LeftHandPinky1
								{
									OFFSET 10.491814 -0.458572 -7.033705
									CHANNELS 3 Xrotation Yrotation Zrotation
									JOINT mixamorig:LeftHandPinky2
									{
										OFFSET 4.452301 0.000000 0.000000
										CHANNELS 3 Xrotation Yrotation Zrotation
										JOINT mixamorig:LeftHandPinky3
										{
											OFFSET 3.536598 0.000000 0.000000
											CHANNELS 3 Xrotation Yrotation Zrotation
											JOINT mixamorig:LeftHandPinky4
											{
												OFFSET 2.823502 0.000000 0.000000
												CHANNELS 3 Xrotation Yrotation Zrotation
												End Site
												{
													OFFSET 2.823502 0.000000 0.000600
												}
											}
										}
									}
								}
							}
						}
					}
				}
				JOINT mixamorig:RightShoulder
				{
					OFFSET -11.646600 18.513351 -2.620334
					CHANNELS 3 Xrotation Yrotation Zrotation
					JOINT mixamorig:RightArm
					{
						OFFSET -23.544205 -6.614441 -0.036501
						CHANNELS 3 Xrotation Yrotation Zrotation
						JOINT mixamorig:RightForeArm
						{
							OFFSET -22.759399 0.000000 0.000001
							CHANNELS 3 Xrotation Yrotation Zrotation
							JOINT mixamorig:RightHand
							{
								OFFSET -32.238106 0.000000 0.000001
								CHANNELS 3 Xrotation Yrotation Zrotation
								JOINT mixamorig:RightHandThumb1
								{
									OFFSET -4.492897 -2.767944 4.026622
									CHANNELS 3 Xrotation Yrotation Zrotation
									JOINT mixamorig:RightHandThumb2
									{
										OFFSET -4.113335 -2.374832 2.374833
										CHANNELS 3 Xrotation Yrotation Zrotation
										JOINT mixamorig:RightHandThumb3
										{
											OFFSET -4.066299 -2.347672 2.347678
											CHANNELS 3 Xrotation Yrotation Zrotation
											JOINT mixamorig:RightHandThumb4
											{
												OFFSET -3.138756 -1.812164 1.812160
												CHANNELS 3 Xrotation Yrotation Zrotation
												End Site
												{
													OFFSET -2.613274 -1.789185 2.527684
												}
											}
										}
									}
								}
								JOINT mixamorig:RightHandIndex1
								{
									OFFSET -12.930191 -0.141510 3.700550
									CHANNELS 3 Xrotation Yrotation Zrotation
									JOINT mixamorig:RightHandIndex2
									{
										OFFSET -4.764015 0.000000 0.000000
										CHANNELS 3 Xrotation Yrotation Zrotation
										JOINT mixamorig:RightHandIndex3
										{
											OFFSET -4.419807 0.000000 0.000000
											CHANNELS 3 Xrotation Yrotation Zrotation
											JOINT mixamorig:RightHandIndex4
											{
												OFFSET -3.701851 0.000000 0.000000
												CHANNELS 3 Xrotation Yrotation Zrotation
												End Site
												{
													OFFSET -3.701797 0.000153 -0.018699
												}
											}
										}
									}
								}
								JOINT mixamorig:RightHandMiddle1
								{
									OFFSET -12.168388 0.000000 0.000001
									CHANNELS 3 Xrotation Yrotation Zrotation
									JOINT mixamorig:RightHandMiddle2
									{
										OFFSET -5.385834 0.000000 0.000000
										CHANNELS 3 Xrotation Yrotation Zrotation
										JOINT mixamorig:RightHandMiddle3
										{
											OFFSET -5.321609 0.000000 0.000000
											CHANNELS 3 Xrotation Yrotation Zrotation
											JOINT mixamorig:RightHandMiddle4
											{
												OFFSET -4.501015 0.000000 0.000000
												CHANNELS 3 Xrotation Yrotation Zrotation
												End Site
												{
													OFFSET -4.500992 -0.000168 0.011299
												}
											}
										}
									}
								}
								JOINT mixamorig:RightHandRing1
								{
									OFFSET -11.815239 0.302551 -3.905540
									CHANNELS 3 Xrotation Yrotation Zrotation
									JOINT mixamorig:RightHandRing2
									{
										OFFSET -4.583313 0.000000 0.000000
										CHANNELS 3 Xrotation Yrotation Zrotation
										JOINT mixamorig:RightHandRing3
										{
											OFFSET -4.612907 0.000000 0.000000
											CHANNELS 3 Xrotation Yrotation Zrotation
											JOINT mixamorig:RightHandRing4
											{
												OFFSET -3.358940 0.000000 0.000000
												CHANNELS 3 Xrotation Yrotation Zrotation
												End Site
												{
													OFFSET -3.358910 -0.000198 0.016799
												}
											}
										}
									}
								}
								JOINT mixamorig:RightHandPinky1
								{
									OFFSET -10.511444 -0.263382 -6.996516
									CHANNELS 3 Xrotation Yrotation Zrotation
									JOINT mixamorig:RightHandPinky2
									{
										OFFSET -4.477509 0.000000 0.000000
										CHANNELS 3 Xrotation Yrotation Zrotation
										JOINT mixamorig:RightHandPinky3
										{
											OFFSET -3.497902 0.000000 0.000000
											CHANNELS 3 Xrotation Yrotation Zrotation
											JOINT mixamorig:RightHandPinky4
											{
												OFFSET -2.797302 0.000000 0.000000
												CHANNELS 3 Xrotation Yrotation Zrotation
												End Site
												{
													OFFSET -2.797302 -0.000031 0.002200
												}
											}
										}
									}
								}
							}
						}
					}
				}
			}
		}
	}
	JOINT mixamorig:LeftUpLeg
	{
		OFFSET 13.580900 -8.149200 -1.796100
		CHANNELS 3 Xrotation Yrotation Zrotation
		JOINT mixamorig:LeftLeg
		{
			OFFSET 1.779603 -35.946629 -2.676069
			CHANNELS 3 Xrotation Yrotation Zrotation
			JOINT mixamorig:LeftFoot
			{
				OFFSET -1.779600 -26.652353 -2.057156
				CHANNELS 3 Xrotation Yrotation Zrotation
				JOINT mixamorig:LeftToeBase
				{
					OFFSET -1.192457 -6.581663 13.403625
					CHANNELS 3 Xrotation Yrotation Zrotation
					JOINT mixamorig:LeftToe_End
					{
						OFFSET -0.351332 -0.163919 5.937958
						CHANNELS 3 Xrotation Yrotation Zrotation
						End Site
						{
							OFFSET -0.351332 -0.163919 5.937958
						}
					}
				}
			}
		}
	}
	JOINT mixamorig:RightUpLeg
	{
		OFFSET -13.580900 -8.149200 -2.255300
		CHANNELS 3 Xrotation Yrotation Zrotation
		JOINT mixamorig:RightLeg
		{
			OFFSET -1.779582 -35.946686 -2.316831
			CHANNELS 3 Xrotation Yrotation Zrotation
			JOINT mixamorig:RightFoot
			{
				OFFSET 1.779588 -26.652205 -2.090130
				CHANNELS 3 Xrotation Yrotation Zrotation
				JOINT mixamorig:RightToeBase
				{
					OFFSET 1.192391 -6.582412 13.372187
					CHANNELS 3 Xrotation Yrotation Zrotation
					JOINT mixamorig:RightToe_End
					{
						OFFSET 0.351304 -0.164246 5.913598
						CHANNELS 3 Xrotation Yrotation Zrotation
						End Site
						{
							OFFSET 0.351304 -0.164246 5.913598
						}
					}
				}
			}
		}
	}
}
MOTION
Frames: 4
Frame Time: 0.016667
0.638879 77.697647 -46.436596 9.222199 355.686855 1.860122 6.026522 2.703243 2.769250 -1.448123 0.472778 -2.405872 -1.434039 0.453669 -2.419967 1.451764 -1.524182 0.130127 5.931515 -7.460880 0.838005 -0.000001 0.000000 -0.000000 -0.468609 8.895034 -0.109413 -30.244228 19.476160 -35.377631 -0.000005 -70.229187 -0.000008 20.296148 14.076143 16.112544 -1.540043 3.690177 6.142373 5.192794 23.964310 1.872111 -0.579459 1.575002 2.538722 0.000000 0.000004 0.000001 0.051595 0.843106 -7.004201 0.088830 1.104727 -9.194703 0.001240 0.130997 -1.085496 0.000002 -0.000000 -0.000001 0.040199 0.744419 -6.180809 0.007166 0.314771 -2.609251 0.009682 0.365888 -3.033407 0.000001 -0.000003 -0.000001 0.012193 0.410492 -3.403576 0.088844 1.104730 -9.194704 0.012535 0.416190 -3.450821 -0.000003 0.000000 -0.000000 0.755280 5.150895 -9.103567 0.080713 -2.950352 -9.698868 0.000735 0.101392 -0.840219 -0.000001 -0.000001 -0.000000 0.537112 8.633621 10.494873 30.421594 31.183143 51.443315 0.000006 27.945857 -0.000003 8.371455 1.299725 6.917765 -1.851274 -3.585981 -6.592826 4.637363 -8.640597 -0.225913 -1.272564 0.131304 -2.096156 -0.000002 0.000003 -0.000000 0.016490 -0.479548 3.938127 0.065322 -0.952812 7.843664 0.005753 -0.283456 2.326632 0.000001 -0.000000 0.000000 0.016486 -0.479554 3.938122 0.065325 -0.952814 7.843671 0.005759 -0.283457 2.326636 0.000000 0.000000 -0.000002 0.016484 -0.479553 3.938120 0.219155 -1.735287 14.394537 0.005762 -0.283466 2.326634 -0.000001 -0.000001 0.000001 0.016486 -0.479549 3.938125 0.122417 -1.301611 10.745287 0.005752 -0.283460 2.326630 0.000002 0.000002 -0.000001 -17.072085 -14.449885 -1.157996 6.263825 8.413395 4.859426 5.949817 15.419628 -7.592414 -2.651612 -0.000010 0.000126 -0.000000 0.000001 -0.000001 -15.648575 4.610149 5.687272 51.228686 0.915633 -6.486713 7.405521 -6.089887 1.272111 -39.366113 -0.747418 1.900538 0.000000 0.000000 -0.000000 
0.281283 77.713715 -47.819088 9.529799 356.945276 1.593849 6.465894 1.755503 3.403654 -1.362520 0.318263 -2.375866 -1.353585 0.298358 -2.385518 1.257125 -1.852659 0.838055 6.487551 -8.150366 1.247316 -0.000000 0.000000 -0.000000 -0.371489 7.812188 -0.193844 -31.554951 16.753532 -35.703076 0.000006 -74.217054 -0.000024 20.576720 14.366557 16.671508 -1.540034 3.690177 6.142356 5.192796 23.964318 1.872122 -0.579456 1.574999 2.538722 -0.000004 -0.000003 -0.000004 0.050273 0.832190 -6.913080 0.085248 1.082372 -9.006994 0.001088 0.122677 -1.016605 -0.000001 -0.000002 -0.000002 0.038959 0.732928 -6.085089 0.006439 0.298247 -2.472184 0.009165 0.355799 -2.949583 -0.000001 0.000001 0.000000 0.011746 0.402832 -3.340055 0.085253 1.082388 -9.007006 0.011914 0.405689 -3.363796 -0.000000 -0.000001 -0.000000 0.740181 5.132869 -8.935190 0.076924 -2.972699 -9.511425 0.000587 0.090899 -0.753215 0.000002 0.000001 0.000001 0.532312 7.992704 10.840730 31.395692 31.773265 49.546257 0.000016 27.327329 0.000005 6.057975 0.550403 8.421438 -1.852967 -3.589419 -6.598359 4.637534 -8.645939 -0.226333 -1.271599 0.126331 -2.097209 -0.000001 0.000003 -0.000000 0.017893 -0.499669 4.103748 0.075843 -1.026359 8.453427 0.006716 -0.305974 2.511602 -0.000002 -0.000000 -0.000001 0.017891 -0.499673 4.103744 0.075849 -1.026357 8.453438 0.006707 -0.305964 2.511597 0.000003 0.000000 -0.000002 0.017894 -0.499676 4.103748 0.242810 -1.824925 15.155804 0.006700 -0.305984 2.511601 0.000002 0.000000 -0.000001 0.017899 -0.499674 4.103745 0.135879 -1.370651 11.322825 0.006694 -0.305982 2.511595 0.000000 0.000000 0.000001 -16.151888 -11.418761 -0.814278 6.382994 6.209086 3.866364 4.268907 15.504668 -6.343939 -2.577104 0.000001 0.000749 0.000000 0.000000 -0.000000 -18.506601 4.132403 6.320497 53.565492 1.870850 -6.887261 8.332525 -5.683873 2.008849 -39.279270 -0.109767 0.270834 -0.000000 -0.000000 -0.000000 
0.112011 77.742134 -49.282841 9.403479 358.019009 1.163281 7.016191 0.718759 4.077441 -1.269498 0.146031 -2.278775 -1.266247 0.125974 -2.282998 1.277672 -1.971066 0.946516 6.986706 -8.631958 1.644718 -0.000001 0.000001 -0.000000 -0.270617 6.814333 -0.261039 -33.101996 14.288480 -35.558672 0.000136 -77.341388 0.000078 20.927783 14.625754 16.274630 -1.540036 3.690182 6.142351 5.192800 23.964315 1.872120 -0.579460 1.575003 2.538723 -0.000005 -0.000003 -0.000002 0.052499 0.850318 -7.064412 0.091247 1.119475 -9.318675 0.001342 0.136483 -1.130994 -0.000000 -0.000001 -0.000000 0.041021 0.751987 -6.244041 0.007674 0.325692 -2.699796 0.010036 0.372561 -3.088775 -0.000002 0.000004 0.000001 0.012509 0.415555 -3.445568 0.091243 1.119476 -9.318671 0.012958 0.423122 -3.508291 -0.000000 -0.000000 0.000001 0.765268 5.162783 -9.214799 0.083248 -2.935623 -9.822667 0.000844 0.108328 -0.897702 0.000002 0.000000 -0.000000 0.539125 7.503256 10.991866 31.995389 31.967659 48.064004 0.000000 26.900196 -0.000002 4.280641 0.034603 9.232072 -1.853457 -3.590480 -6.600028 4.637556 -8.647536 -0.226462 -1.271282 0.124844 -2.097536 -0.000005 0.000005 0.000005 0.018666 -0.510190 4.190251 0.081664 -1.064712 8.771848 0.007227 -0.317734 2.608192 0.000002 -0.000000 -0.000000 0.018659 -0.510192 4.190249 0.081672 -1.064714 8.771852 0.007233 -0.317730 2.608192 0.000000 0.000000 0.000001 0.018658 -0.510196 4.190243 0.255633 -1.871586 15.553372 0.007236 -0.317749 2.608189 0.000004 0.000001 0.000000 0.018664 -0.510191 4.190251 0.143193 -1.406661 11.624411 0.007231 -0.317748 2.608178 -0.000004 -0.000002 0.000001 -15.798747 -10.640058 -0.831693 8.572120 5.053000 3.387862 1.881550 15.538102 -5.718110 -2.915417 0.000007 0.000001 -0.000000 0.000001 -0.000000 -21.334214 3.635515 7.072046 56.196245 2.786095 -7.468356 10.326365 -4.960027 2.716858 -39.691011 0.503345 -1.286179 -0.000001 0.000000 -0.000000 
0.000638 77.775658 -50.729065 9.029760 358.788744 0.687128 7.691153 -0.390654 4.736813 -1.188841 -0.040466 -2.118056 -1.191400 -0.059975 -2.116087 1.365639 -2.003727 0.890242 7.522111 -8.891921 1.867011 -0.000001 0.000000 0.000000 -0.166581 5.885313 -0.377229 -34.677294 12.010466 -35.082024 -0.000000 -79.648721 -0.000010 21.248100 14.729458 15.314729 -1.540029 3.690187 6.142353 5.192796 23.964313 1.872115 -0.579458 1.575002 2.538727 -0.000003 0.000000 0.000003 0.056598 0.882778 -7.335606 0.102474 1.185918 -9.877344 0.001878 0.161231 -1.336062 0.000002 0.000005 0.000001 0.044848 0.786167 -6.528935 0.010165 0.374841 -3.107755 0.011727 0.402626 -3.338250 0.000001 0.000002 0.000002 0.013908 0.438322 -3.634641 0.102478 1.185929 -9.877335 0.014952 0.454308 -3.767300 0.000001 0.000000 0.000001 0.810606 5.216062 -9.716013 0.095081 -2.869276 -10.380510 0.001407 0.139580 -1.156674 0.000000 0.000002 0.000001 0.552744 7.192455 10.851746 32.182181 31.945317 47.111704 0.000010 26.467215 -0.000004 3.045632 -0.101949 9.381751 -1.851818 -3.587078 -6.594602 4.637421 -8.642266 -0.226042 -1.272259 0.129709 -2.096505 -0.000004 0.000005 0.000003 0.018674 -0.510400 4.191994 0.081784 -1.065492 8.778294 0.007238 -0.317978 2.610163 -0.000001 0.000000 -0.000003 0.018674 -0.510400 4.191995 0.081790 -1.065498 8.778294 0.007236 -0.317969 2.610163 0.000002 0.000000 0.000002 0.018665 -0.510400 4.191989 0.255905 -1.872547 15.561444 0.007241 -0.317975 2.610155 0.000002 0.000001 -0.000002 0.018667 -0.510397 4.191991 0.143347 -1.407393 11.630530 0.007233 -0.317970 2.610155 -0.000000 -0.000001 0.000002 -14.765515 -10.725465 -0.948225 10.227328 4.336177 3.143005 -0.477271 15.988609 -4.872905 -3.118474 -0.000001 0.000003 -0.000000 0.000000 -0.000000 -24.022366 3.246253 7.697484 58.710038 3.543723 -7.816096 12.882290 -3.774812 3.188586 -39.983456 1.087421 -2.883460 -0.000000 0.000001 0.000000 
